<mxfile host="app.diagrams.net" agent="Mozilla/5.0 (Windows NT 10.0; Win64; x64) AppleWebKit/537.36 (KHTML, like Gecko) Chrome/138.0.0.0 Safari/537.36 Edg/138.0.0.0" version="28.0.7">
  <diagram name="Page-1" id="nq7Rm1rvjmX9sD2SlrOK">
    <mxGraphModel dx="1549" dy="1940" grid="0" gridSize="10" guides="0" tooltips="1" connect="1" arrows="1" fold="1" page="0" pageScale="1" pageWidth="827" pageHeight="1169" math="0" shadow="0">
      <root>
        <mxCell id="0" />
        <mxCell id="1" parent="0" />
        <mxCell id="EBMAcg5HuOyllM23scZ5-14" style="edgeStyle=orthogonalEdgeStyle;rounded=0;orthogonalLoop=1;jettySize=auto;html=1;entryX=0.5;entryY=1;entryDx=0;entryDy=0;" edge="1" parent="1" source="EBMAcg5HuOyllM23scZ5-1" target="EBMAcg5HuOyllM23scZ5-12">
          <mxGeometry relative="1" as="geometry" />
        </mxCell>
        <mxCell id="EBMAcg5HuOyllM23scZ5-1" value="Platfrom Layer" style="rounded=0;whiteSpace=wrap;html=1;fillColor=#f0a30a;fontColor=#000000;strokeColor=#BD7000;" vertex="1" parent="1">
          <mxGeometry x="244" y="-538" width="140" height="60" as="geometry" />
        </mxCell>
        <mxCell id="EBMAcg5HuOyllM23scZ5-2" value="IPC Layer" style="rounded=0;whiteSpace=wrap;html=1;fillColor=#f0a30a;strokeColor=#BD7000;fontColor=#000000;" vertex="1" parent="1">
          <mxGeometry x="550" y="-778" width="140" height="60" as="geometry" />
        </mxCell>
        <mxCell id="EBMAcg5HuOyllM23scZ5-15" style="edgeStyle=orthogonalEdgeStyle;rounded=0;orthogonalLoop=1;jettySize=auto;html=1;entryX=0.5;entryY=1;entryDx=0;entryDy=0;" edge="1" parent="1" source="EBMAcg5HuOyllM23scZ5-3" target="EBMAcg5HuOyllM23scZ5-1">
          <mxGeometry relative="1" as="geometry">
            <Array as="points">
              <mxPoint x="620" y="-398" />
              <mxPoint x="314" y="-398" />
            </Array>
          </mxGeometry>
        </mxCell>
        <mxCell id="EBMAcg5HuOyllM23scZ5-17" style="edgeStyle=orthogonalEdgeStyle;rounded=0;orthogonalLoop=1;jettySize=auto;html=1;entryX=0.5;entryY=1;entryDx=0;entryDy=0;" edge="1" parent="1" source="EBMAcg5HuOyllM23scZ5-3" target="EBMAcg5HuOyllM23scZ5-2">
          <mxGeometry relative="1" as="geometry" />
        </mxCell>
        <mxCell id="EBMAcg5HuOyllM23scZ5-3" value="Communication Layer" style="rounded=0;whiteSpace=wrap;html=1;fillColor=#f0a30a;fontColor=#000000;strokeColor=#BD7000;" vertex="1" parent="1">
          <mxGeometry x="550" y="-538" width="140" height="60" as="geometry" />
        </mxCell>
        <mxCell id="EBMAcg5HuOyllM23scZ5-5" style="edgeStyle=orthogonalEdgeStyle;rounded=0;orthogonalLoop=1;jettySize=auto;html=1;entryX=1;entryY=0.5;entryDx=0;entryDy=0;" edge="1" parent="1" source="EBMAcg5HuOyllM23scZ5-4" target="EBMAcg5HuOyllM23scZ5-3">
          <mxGeometry relative="1" as="geometry" />
        </mxCell>
        <mxCell id="EBMAcg5HuOyllM23scZ5-4" value="&lt;h1 style=&quot;margin-top: 0px;&quot;&gt;&lt;ul&gt;&lt;li&gt;&lt;span style=&quot;font-size: 12px; font-weight: 400;&quot;&gt;Broker&lt;/span&gt;&lt;/li&gt;&lt;li&gt;&lt;span style=&quot;font-size: 12px; font-weight: 400;&quot;&gt;Data Processing&lt;/span&gt;&lt;/li&gt;&lt;li&gt;&lt;span style=&quot;font-size: 12px; font-weight: 400;&quot;&gt;Debugger&lt;/span&gt;&lt;/li&gt;&lt;/ul&gt;&lt;/h1&gt;" style="text;html=1;whiteSpace=wrap;overflow=hidden;rounded=0;fillColor=#b1ddf0;strokeColor=#10739e;" vertex="1" parent="1">
          <mxGeometry x="780" y="-598" width="180" height="180" as="geometry" />
        </mxCell>
        <mxCell id="EBMAcg5HuOyllM23scZ5-9" style="edgeStyle=orthogonalEdgeStyle;rounded=0;orthogonalLoop=1;jettySize=auto;html=1;entryX=0;entryY=0.5;entryDx=0;entryDy=0;" edge="1" parent="1" source="EBMAcg5HuOyllM23scZ5-6" target="EBMAcg5HuOyllM23scZ5-1">
          <mxGeometry relative="1" as="geometry" />
        </mxCell>
        <mxCell id="EBMAcg5HuOyllM23scZ5-6" value="&lt;h1 style=&quot;margin-top: 0px;&quot;&gt;&lt;ul&gt;&lt;li&gt;&lt;span style=&quot;font-size: 12px; font-weight: 400;&quot;&gt;Andorid&lt;/span&gt;&lt;/li&gt;&lt;li&gt;&lt;span style=&quot;font-size: 12px; font-weight: 400;&quot;&gt;IOS&lt;/span&gt;&lt;/li&gt;&lt;li&gt;&lt;span style=&quot;font-size: 12px; font-weight: 400;&quot;&gt;Linux&lt;/span&gt;&lt;/li&gt;&lt;li&gt;&lt;span style=&quot;font-size: 12px; font-weight: 400;&quot;&gt;Windows&lt;/span&gt;&lt;/li&gt;&lt;/ul&gt;&lt;/h1&gt;" style="text;html=1;whiteSpace=wrap;overflow=hidden;rounded=0;glass=0;fillColor=#b1ddf0;strokeColor=#10739e;" vertex="1" parent="1">
          <mxGeometry x="-16" y="-599" width="180" height="180" as="geometry" />
        </mxCell>
        <mxCell id="EBMAcg5HuOyllM23scZ5-8" style="edgeStyle=orthogonalEdgeStyle;rounded=0;orthogonalLoop=1;jettySize=auto;html=1;entryX=1;entryY=0.5;entryDx=0;entryDy=0;" edge="1" parent="1" source="EBMAcg5HuOyllM23scZ5-7" target="EBMAcg5HuOyllM23scZ5-2">
          <mxGeometry relative="1" as="geometry" />
        </mxCell>
        <mxCell id="EBMAcg5HuOyllM23scZ5-7" value="&lt;h1 style=&quot;margin-top: 0px;&quot;&gt;&lt;ul&gt;&lt;li&gt;&lt;span style=&quot;font-size: 12px; font-weight: 400;&quot;&gt;gRPC&lt;/span&gt;&lt;/li&gt;&lt;li&gt;&lt;span style=&quot;font-size: 12px; font-weight: 400;&quot;&gt;sensor_data.proto&lt;/span&gt;&lt;/li&gt;&lt;li&gt;&lt;span style=&quot;font-size: 12px; font-weight: 400;&quot;&gt;my_service.proto&amp;nbsp;&lt;/span&gt;&lt;/li&gt;&lt;/ul&gt;&lt;/h1&gt;" style="text;html=1;whiteSpace=wrap;overflow=hidden;rounded=0;fillColor=#b1ddf0;strokeColor=#10739e;" vertex="1" parent="1">
          <mxGeometry x="780" y="-838" width="180" height="180" as="geometry" />
        </mxCell>
        <mxCell id="EBMAcg5HuOyllM23scZ5-12" value="main.cpp" style="ellipse;whiteSpace=wrap;html=1;fillColor=#a20025;fontColor=#ffffff;strokeColor=#6F0000;" vertex="1" parent="1">
          <mxGeometry x="254" y="-778" width="120" height="80" as="geometry" />
        </mxCell>
      </root>
    </mxGraphModel>
  </diagram>
</mxfile>
